<svg width="520" height="360" viewBox="0 0 520 360" fill="none" xmlns="http://www.w3.org/2000/svg">
  <rect width="520" height="360" rx="28" fill="#000000"/>
  <circle cx="96" cy="88" r="58" fill="#122C4F"/>
  <circle cx="424" cy="112" r="46" fill="#5B88B2" opacity="0.9"/>
  <circle cx="418" cy="262" r="64" fill="#122C4F" opacity="0.82"/>
  <path d="M140 214C140 186.386 162.386 164 190 164H322C349.614 164 372 186.386 372 214V246C372 273.614 349.614 296 322 296H222L168 320V296H190C162.386 296 140 273.614 140 246V214Z" fill="#0F1F35" stroke="#FBF9E4" stroke-opacity="0.6" stroke-width="2"/>
  <path d="M186 219H304" stroke="#FBF9E4" stroke-opacity="0.8" stroke-width="10" stroke-linecap="round"/>
  <path d="M186 245H266" stroke="#5B88B2" stroke-width="10" stroke-linecap="round"/>
  <circle cx="182" cy="124" r="24" fill="#FBF9E4"/>
  <circle cx="182" cy="124" r="11" fill="#5B88B2"/>
  <path d="M344 88C344 67.0132 360.013 50 379 50H428C448.987 50 465 67.0132 465 88V118C465 138.987 448.987 156 428 156H402L380 174V156H379C360.013 156 344 138.987 344 118V88Z" fill="#122C4F" stroke="#FBF9E4" stroke-opacity="0.45" stroke-width="2"/>
  <circle cx="390" cy="96" r="12" fill="#FBF9E4"/>
  <path d="M386 96L390 100L398 90" stroke="#122C4F" stroke-width="3" stroke-linecap="round" stroke-linejoin="round"/>
  <path d="M88 66H116" stroke="#5B88B2" stroke-width="6" stroke-linecap="round"/>
  <path d="M68 92H108" stroke="#FBF9E4" stroke-opacity="0.75" stroke-width="6" stroke-linecap="round"/>
</svg>
